<svg id="Capa_1" enable-background="new 0 0 512 512" height="512" viewBox="0 0 512 512" width="512" xmlns="http://www.w3.org/2000/svg"><path d="m473.196 292.547h35.743c-.827-1.13-1.965-2.054-3.362-2.611-114.133-45.514-182.345-132.534-207.865-196.486v36.331c33.511 61.787 94.454 123.649 175.484 162.766z" fill="#554e56"/><path d="m424.832 292.547c-.827-1.13-1.965-2.054-3.362-2.611-47.107-18.785-89.617-45.4-119.698-74.942-1.155-1.135-2.577-1.83-4.06-2.093v19.539c24.98 22.964 56.015 43.399 91.151 60.107z" fill="#554e56"/><path d="m232.134 43.992h24.229v65.245h-24.229z" fill="#ff646f" transform="matrix(0 -1 1 0 167.635 320.862)"/><path d="m238.191 50.049h12.115v65.245h-12.115z" fill="#ff4755" transform="matrix(0 -1 1 0 161.577 326.92)"/><path d="m232.134 120.47h24.229v65.245h-24.229z" fill="#ff646f" transform="matrix(0 -1 1 0 91.156 397.341)"/><path d="m237.667 126.004h13.162v65.245h-13.162z" fill="#ff4755" transform="matrix(0 -1 1 0 85.622 402.875)"/><path d="m232.134 196.949h24.229v65.245h-24.229z" fill="#ff646f" transform="matrix(0 -1 1 0 14.677 473.82)"/><path d="m238.191 203.007h12.115v65.245h-12.115z" fill="#ff4755" transform="matrix(0 -1 1 0 8.62 479.877)"/><path d="m215.411 292.048v-254.862c0-4.274-3.444-7.739-7.693-7.739h-8.843c-4.249 0-7.693 3.465-7.693 7.739v254.862z" fill="#ff4755"/><path d="m209.65 29.702c-.618-.161-1.263-.256-1.932-.256h-8.843c-4.249 0-7.693 3.465-7.693 7.739v254.862h12.705v-254.861c.001-3.602 2.45-6.62 5.763-7.484z" fill="#fc2b3a"/><path d="m210.283 397.041c1.754 0 3.467-.182 5.129-.515v-76.491h-24.229v68.798c4.936 5.075 11.669 8.208 19.1 8.208z" fill="#ff4755"/><path d="m203.888 320.035h-12.705v68.798c3.473 3.57 7.837 6.173 12.705 7.406z" fill="#fc2b3a"/><path d="m508.261 290.487h-209.928v31.127h209.928c2.065 0 3.739-1.663 3.739-3.714v-23.699c0-2.051-1.674-3.714-3.739-3.714z" fill="#ff646f"/><path d="m508.261 306.05h-209.928v15.563h209.928c2.065 0 3.739-1.663 3.739-3.714v-15.563c0 2.051-1.674 3.714-3.739 3.714z" fill="#ff4755"/><path d="m106.86 292.547c20.674-10.416 40.055-22.415 57.879-35.878 3.405-2.572 4.081-7.417 1.509-10.822-2.571-3.404-7.417-4.08-10.822-1.509-25.592 19.329-54.55 35.548-86.072 48.209z" fill="#685e68"/><path d="m35.331 292.547c62.939-34.896 110.237-84.738 141.687-143.594 27.505-51.472 33.677-92.536 33.926-94.259.611-4.221-2.314-8.135-6.534-8.749-4.222-.613-8.14 2.309-8.759 6.529-.058.4-6.166 40.574-32.561 89.754-24.256 45.194-71.166 107.539-156.898 147.898-1.21.57-2.203 1.413-2.941 2.422h32.08z" fill="#685e68"/><path d="m0 294.201v23.699c0 2.051 1.671 3.714 3.732 3.714h273.139v-31.127h-273.139c-2.061 0-3.732 1.663-3.732 3.714z" fill="#ff646f"/><path d="m0 302.336v15.564c0 2.051 1.671 3.714 3.732 3.714h273.139v-15.564h-273.139c-2.061 0-3.732-1.663-3.732-3.714z" fill="#ff4755"/><path d="m282.204 388.893c4.544 4.641 10.708 7.662 17.568 8.147v-359.844c0-4.28-3.444-7.749-7.693-7.749h-8.843c-4.249 0-7.693 3.469-7.693 7.749v351.673c1.861-1.871 4.812-1.865 6.661.024z" fill="#ff8088"/><path d="m287.657 37.196c0-3.714 2.595-6.814 6.057-7.569-.528-.115-1.074-.18-1.636-.18h-8.843c-4.249 0-7.693 3.469-7.693 7.749v351.673c1.861-1.87 4.812-1.864 6.662.025 1.624 1.659 3.457 3.106 5.453 4.309z" fill="#ff646f"/><path d="m508.421 382.484c-.856.119-1.6.64-2.128 1.324-5.013 6.49-12.871 10.671-21.706 10.671-7.638 0-14.543-3.126-19.513-8.165-1.859-1.885-4.832-1.885-6.691 0-4.97 5.04-11.876 8.165-19.513 8.165s-14.543-3.126-19.513-8.165c-1.859-1.885-4.832-1.885-6.691 0-4.97 5.04-11.875 8.165-19.513 8.165s-14.543-3.126-19.513-8.165c-1.822-1.848-4.869-1.848-6.691 0-4.97 5.04-11.875 8.165-19.513 8.165-7.637 0-14.543-3.126-19.513-8.165-1.859-1.885-4.832-1.885-6.691 0-4.97 5.04-11.876 8.165-19.513 8.165s-14.543-3.126-19.513-8.165c-1.859-1.885-4.832-1.885-6.691 0-4.97 5.04-11.876 8.165-19.513 8.165-7.638 0-14.543-3.126-19.513-8.165-1.822-1.848-4.87-1.848-6.692 0-4.97 5.04-11.875 8.165-19.513 8.165s-14.543-3.126-19.513-8.165c-1.859-1.885-4.832-1.885-6.691 0-4.97 5.04-11.876 8.165-19.513 8.165-7.638 0-14.543-3.126-19.513-8.165-1.859-1.885-4.832-1.885-6.691 0-4.97 5.04-11.876 8.165-19.513 8.165s-14.543-3.126-19.513-8.165c-1.822-1.848-4.869-1.848-6.692 0-4.97 5.04-11.875 8.165-19.513 8.165s-14.543-3.126-19.513-8.165c-1.859-1.885-4.832-1.885-6.691 0-4.97 5.04-11.875 8.165-19.513 8.165-8.835 0-16.693-4.181-21.706-10.671-.529-.684-1.272-1.205-2.128-1.324-1.93-.269-3.581 1.221-3.581 3.097v46.098c0-1.876 1.651-3.366 3.579-3.097.856.119 1.6.64 2.128 1.324 5.013 6.49 12.87 10.671 21.706 10.671 7.638 0 14.543-3.125 19.513-8.165 1.859-1.885 4.832-1.885 6.691 0 4.97 5.04 11.876 8.165 19.513 8.165s14.543-3.125 19.513-8.165c1.822-1.848 4.869-1.848 6.692 0 4.97 5.04 11.875 8.165 19.513 8.165s14.543-3.125 19.513-8.165c1.859-1.885 4.832-1.885 6.691 0 4.97 5.04 11.875 8.165 19.513 8.165 7.637 0 14.543-3.125 19.513-8.165 1.859-1.885 4.832-1.885 6.691 0 4.97 5.04 11.876 8.165 19.513 8.165 7.638 0 14.543-3.125 19.513-8.165 1.822-1.848 4.869-1.848 6.692 0 4.97 5.04 11.875 8.165 19.513 8.165s14.543-3.125 19.513-8.165c1.859-1.885 4.832-1.885 6.691 0 4.97 5.04 11.875 8.165 19.513 8.165s14.543-3.125 19.513-8.165c1.859-1.885 4.832-1.885 6.691 0 4.97 5.04 11.876 8.165 19.513 8.165 7.638 0 14.543-3.125 19.513-8.165 1.822-1.848 4.869-1.848 6.691 0 4.97 5.04 11.875 8.165 19.513 8.165s14.543-3.125 19.513-8.165c1.859-1.885 4.832-1.885 6.691 0 4.97 5.04 11.875 8.165 19.513 8.165s14.543-3.125 19.513-8.165c1.859-1.885 4.832-1.885 6.691 0 4.97 5.04 11.876 8.165 19.513 8.165 8.835 0 16.693-4.181 21.706-10.671.529-.684 1.272-1.205 2.128-1.324 1.928-.269 3.579 1.221 3.579 3.097v-46.098c.002-1.876-1.649-3.366-3.577-3.097z" fill="#8bcaff"/><path d="m73.13 406.158c0-4.984 2.346-9.441 5.98-12.342-1.926.429-3.925.662-5.98.662-7.638 0-14.543-3.126-19.513-8.165-1.859-1.885-4.832-1.885-6.691 0-4.97 5.04-11.875 8.165-19.513 8.165-8.835 0-16.693-4.181-21.706-10.671-.529-.684-1.272-1.205-2.128-1.324-1.928-.268-3.579 1.222-3.579 3.098v46.098c0-1.876 1.651-3.366 3.579-3.097.856.119 1.6.64 2.128 1.324 5.013 6.49 12.87 10.671 21.706 10.671 7.638 0 14.543-3.125 19.513-8.165 1.859-1.885 4.832-1.885 6.691 0 4.97 5.04 11.876 8.165 19.513 8.165z" fill="#60b8ff"/><path d="m508.421 426.521c-.856.119-1.6.64-2.128 1.324-5.013 6.49-12.871 10.671-21.706 10.671-7.638 0-14.543-3.125-19.513-8.165-1.859-1.885-4.832-1.885-6.691 0-4.97 5.04-11.876 8.165-19.513 8.165s-14.543-3.125-19.513-8.165c-1.859-1.885-4.832-1.885-6.691 0-4.97 5.04-11.876 8.165-19.513 8.165-7.638 0-14.543-3.125-19.513-8.165-1.822-1.848-4.869-1.848-6.691 0-4.97 5.04-11.875 8.165-19.513 8.165s-14.543-3.125-19.513-8.165c-1.859-1.885-4.832-1.885-6.691 0-4.97 5.04-11.876 8.165-19.513 8.165-7.638 0-14.543-3.125-19.513-8.165-1.859-1.885-4.832-1.885-6.691 0-4.97 5.04-11.876 8.165-19.513 8.165-7.638 0-14.543-3.125-19.513-8.165-1.822-1.848-4.869-1.848-6.691 0-4.97 5.04-11.875 8.165-19.513 8.165s-14.543-3.125-19.513-8.165c-1.859-1.885-4.832-1.885-6.691 0-4.97 5.04-11.876 8.165-19.513 8.165-7.638 0-14.543-3.125-19.513-8.165-1.859-1.885-4.832-1.885-6.691 0-4.97 5.04-11.876 8.165-19.513 8.165s-14.543-3.125-19.513-8.165c-1.822-1.848-4.869-1.848-6.691 0-4.97 5.04-11.875 8.165-19.513 8.165s-14.543-3.125-19.513-8.165c-1.859-1.885-4.832-1.885-6.691 0-4.97 5.04-11.876 8.165-19.513 8.165-8.835 0-16.693-4.181-21.706-10.671-.528-.684-1.272-1.205-2.128-1.324-1.932-.269-3.583 1.221-3.583 3.097v48.425c0 2.491 2.019 4.51 4.51 4.51h502.98c2.491 0 4.51-2.019 4.51-4.51v-48.425c0-1.876-1.651-3.366-3.579-3.097z" fill="#60b8ff"/><path d="m73.13 438.516c-7.638 0-14.543-3.125-19.513-8.165-1.859-1.885-4.832-1.885-6.691 0-4.97 5.04-11.875 8.165-19.513 8.165-8.835 0-16.693-4.181-21.706-10.671-.529-.684-1.272-1.205-2.128-1.324-1.928-.269-3.579 1.221-3.579 3.097v48.425c0 2.491 2.019 4.51 4.51 4.51h68.62z" fill="#22a7ff"/><path d="m160.088 258.231c-2.341 0-4.652-1.059-6.172-3.07-2.572-3.405-1.896-8.251 1.509-10.822 106.18-80.198 124.425-190.828 124.597-191.936.654-4.217 4.601-7.106 8.819-6.451 4.217.654 7.105 4.603 6.451 8.819-6.995 45.13-44.526 136.921-130.553 201.898-1.394 1.053-3.029 1.562-4.651 1.562z" fill="#685e68"/></svg>